<svg preserveAspectRatio="none" width="100%" height="100%" overflow="visible" style="display: block;" viewBox="0 0 63.6918 50.9534" fill="none" xmlns="http://www.w3.org/2000/svg">
<g id="Clip path group">
<mask id="mask0_0_73" style="mask-type:luminance" maskUnits="userSpaceOnUse" x="-1" y="0" width="65" height="51">
<g id="SVGID_2_">
<path id="Vector" d="M63.6913 0.000106403H-0.000421785V50.9535H63.6913V0.000106403Z" fill="white"/>
</g>
</mask>
<g mask="url(#mask0_0_73)">
<path id="Vector_2" d="M49.8021 5.16429H50.8224C51.2355 5.16429 51.5902 5.24214 51.8864 5.39747C52.1826 5.55281 52.4074 5.76671 52.561 6.03917C52.7146 6.31163 52.7915 6.62142 52.7915 6.96889C52.7915 7.31619 52.7146 7.62704 52.561 7.90127C52.4076 8.1755 52.1817 8.39116 51.8837 8.54845C51.5858 8.70573 51.2318 8.78428 50.8226 8.78428H49.8023V5.16429H49.8021ZM50.8224 8.52651C51.1732 8.52651 51.4742 8.45786 51.7247 8.32075C51.975 8.18381 52.1661 7.99716 52.2977 7.76132C52.4292 7.52549 52.495 7.26134 52.495 6.96889C52.495 6.67626 52.4303 6.413 52.3004 6.17894C52.1705 5.94505 51.9795 5.76034 51.7272 5.62517C51.4749 5.48983 51.1732 5.42224 50.8224 5.42224H50.0875V8.52651H50.8224Z" fill="#AF8B18"/>
</g>
</g>
</svg>
